<mxfile host="app.diagrams.net" modified="2021-05-26T09:53:21.107Z" agent="5.0 (Macintosh; Intel Mac OS X 10_15_7) AppleWebKit/537.36 (KHTML, like Gecko) Chrome/90.0.4430.212 Safari/537.36" etag="jNvijd926v2GrSvDq6Pg" version="14.7.0" type="github">
  <diagram name="Page-1" id="e3a06f82-3646-2815-327d-82caf3d4e204">
    <mxGraphModel dx="946" dy="485" grid="1" gridSize="10" guides="1" tooltips="1" connect="1" arrows="1" fold="1" page="1" pageScale="1.5" pageWidth="1169" pageHeight="826" background="none" math="0" shadow="0">
      <root>
        <mxCell id="0" style=";html=1;" />
        <mxCell id="1" style=";html=1;" parent="0" />
        <mxCell id="0BSZRiFdR5pFS_ZLe5Vd-19" value="" style="shape=ext;double=1;rounded=0;whiteSpace=wrap;html=1;fillColor=none;" vertex="1" parent="1">
          <mxGeometry x="241" y="840" width="439" height="280" as="geometry" />
        </mxCell>
        <mxCell id="0BSZRiFdR5pFS_ZLe5Vd-8" style="edgeStyle=orthogonalEdgeStyle;rounded=0;orthogonalLoop=1;jettySize=auto;html=1;" edge="1" parent="1" source="0BSZRiFdR5pFS_ZLe5Vd-7">
          <mxGeometry relative="1" as="geometry">
            <mxPoint x="356" y="916" as="targetPoint" />
          </mxGeometry>
        </mxCell>
        <mxCell id="0BSZRiFdR5pFS_ZLe5Vd-7" value="认证因子" style="rounded=0;whiteSpace=wrap;html=1;labelPosition=center;verticalLabelPosition=bottom;align=center;verticalAlign=top;" vertex="1" parent="1">
          <mxGeometry x="296" y="996" width="120" height="60" as="geometry" />
        </mxCell>
        <mxCell id="0BSZRiFdR5pFS_ZLe5Vd-9" style="edgeStyle=orthogonalEdgeStyle;rounded=0;orthogonalLoop=1;jettySize=auto;html=1;" edge="1" parent="1">
          <mxGeometry relative="1" as="geometry">
            <mxPoint x="426" y="915.5" as="sourcePoint" />
            <mxPoint x="556" y="915" as="targetPoint" />
            <Array as="points">
              <mxPoint x="481" y="915" />
            </Array>
          </mxGeometry>
        </mxCell>
        <mxCell id="6a7d8f32e03d9370-6" value="Client" style="verticalLabelPosition=bottom;aspect=fixed;html=1;verticalAlign=top;strokeColor=none;shape=mxgraph.citrix.pda;fillColor=#66B2FF;gradientColor=#0066CC;fontSize=14;" parent="1" vertex="1">
          <mxGeometry x="396.00000000000006" y="885" width="30" height="61" as="geometry" />
        </mxCell>
        <mxCell id="6a7d8f32e03d9370-14" value="" style="verticalLabelPosition=bottom;aspect=fixed;html=1;verticalAlign=top;strokeColor=none;shape=mxgraph.citrix.xenclient_synchronizer;fillColor=#CCCCCC;gradientColor=#000000;gradientDirection=south;fontSize=14;" parent="1" vertex="1">
          <mxGeometry x="555.9999999999999" y="870.5" width="76" height="91" as="geometry" />
        </mxCell>
        <mxCell id="0BSZRiFdR5pFS_ZLe5Vd-1" value="" style="shape=image;verticalLabelPosition=bottom;labelBackgroundColor=#ffffff;verticalAlign=top;aspect=fixed;imageAspect=0;image=data:image/jpeg,/9j/4AAQSkZJRgABAQAASABIAAD/4QBYRXhpZgAATU0AKgAAAAgAAgESAAMAAAABAAEAAIdpAAQAAAABAAAAJgAAAAAAA6ABAAMAAAABAAEAAKACAAQAAAABAAAAeaADAAQAAAABAAAApQAAAAD/7QA4UGhvdG9zaG9wIDMuMAA4QklNBAQAAAAAAAA4QklNBCUAAAAAABDUHYzZjwCyBOmACZjs+EJ+/8AAEQgApQB5AwEiAAIRAQMRAf/EAB8AAAEFAQEBAQEBAAAAAAAAAAABAgMEBQYHCAkKC//EALUQAAIBAwMCBAMFBQQEAAABfQECAwAEEQUSITFBBhNRYQcicRQygZGhCCNCscEVUtHwJDNicoIJChYXGBkaJSYnKCkqNDU2Nzg5OkNERUZHSElKU1RVVldYWVpjZGVmZ2hpanN0dXZ3eHl6g4SFhoeIiYqSk5SVlpeYmZqio6Slpqeoqaqys7S1tre4ubrCw8TFxsfIycrS09TV1tfY2drh4uPk5ebn6Onq8fLz9PX29/j5+v/EAB8BAAMBAQEBAQEBAQEAAAAAAAABAgMEBQYHCAkKC//EALURAAIBAgQEAwQHBQQEAAECdwABAgMRBAUhMQYSQVEHYXETIjKBCBRCkaGxwQkjM1LwFWJy0QoWJDThJfEXGBkaJicoKSo1Njc4OTpDREVGR0hJSlNUVVZXWFlaY2RlZmdoaWpzdHV2d3h5eoKDhIWGh4iJipKTlJWWl5iZmqKjpKWmp6ipqrKztLW2t7i5usLDxMXGx8jJytLT1NXW19jZ2uLj5OXm5+jp6vLz9PX29/j5+v/bAEMACgcHCQcGCgkICQsLCgwPGRAPDg4PHhYXEhkkICYlIyAjIigtOTAoKjYrIiMyRDI2Oz1AQEAmMEZLRT5KOT9APf/bAEMBCwsLDw0PHRAQHT0pIyk9PT09PT09PT09PT09PT09PT09PT09PT09PT09PT09PT09PT09PT09PT09PT09PT09Pf/dAAQACP/aAAwDAQACEQMRAD8A9kpCe1I7BVJJ4H6V4/46+I95d38mk+H2dY1by3ljGWkbOMCgD1p7+1ibbJcwow7NIAaT+0rL/n8t/wDv6teI2vwr8S6tEtzdzRxO3OLhyWNWB8F9dx/x+2X/AH03+FAHtcNzDcZ8maOTHXY4OPyqSuA+HvgPUPCl5cz3t4jrKm0RxEkZ9Tmu/oAKKKKACiijFAEEl7bQuVluIUYdQ0gBFM/tOy/5/Lb/AL+rXmHir4V6trHiK5voL6FopW3ASkgr7Vkf8KX17H/H5af99t/hQB7VFdQTf6qaOT/dcGpq8A1Dwb4r8HL9tglfy4zkyWz5C/UV3vw6+IR8RZ07UsLfIuUYceYO/wCNAHoVFFFAH//Q9H8a38ml+EtRuojh0i4P14rzX4NaJBe393qdwBJJb4VAwyMnvXoHxI/5EHVf+uY/mK5P4H86bqmf+eqfyoGj1NR7UtJRQIKKKKACiiigAooooAKKKKAGSRrKjI6hkPDA9xivAvEVoPCHxLX7CdiCZJUHsx5FfQFeEfFL/ko6f7sX8xQB7sjbkVumRmlpsX+pT/dFOoA//9H0rxfpU2t+F76wtsedMmFzXP8Awu8Lah4Z0y7XVERJZ5AQqnPArusUUAFFFL2oASiuP8Q/ESw8PeIIdLuIZnd8F3XogPT6116kMoYdCM0ALRQelcT40+IY8Jara2YtPP8ANG923Y2jOKAO2oqK1mFzaxTKCFkQOAfQjNVda1aHQ9IuNQuQxjhXcQO9AF+iuc8H+MbbxfZzTW0UkJibayvXR0AL2ryzxx4C1fXfGsF/ZLGbZggZifubT6d69SooARF2oq+gxS0UUAf/0vZKKKKACiiigDwv4nwSt8SItsbkMItuFPPIr3C3BFtED1CDP5U2Wytp5lllgjeRPusygkfjU1ABXiPxo/5G2z/69x/6FXt/avD/AI0f8jbaf9e4/wDQqAPZNK/5BFn/ANcU/wDQRWH8Ro2l8DamiKWJj4AGT1rc0r/kEWn/AFxT/wBBFWXjWQEMAQwwQRnIoA8v+CEbrpmpOUYBpVwSpGeK9SHSooLWG1j2QRJGuc7UUAZ/CpaACiiigAooooA//9P2SilpAaACiiigAoozTFlR3Kq6lh1UEZFAHPeNvFv/AAiOlpdfZmnaR9qjOAPrXjeoX+pfEbxXbstrtb5YwEBIRc5JJr6AvLG2v4DBeQRzRk52OoIqOx0mx01dtjaQwA9fLUA0ATWkP2ezhhzny0CZ+gxU1J06c01ZUZioZSw6qDk0APooooAKKKM0AFFFFAH/1PSfGWqT6P4Vv761OJoY8qcZxXO/CrxJqPiHTLz+1JfOkgkChsYOCM1rfEn/AJEHVf8ArmP5iuU+B/8AyD9T/wCuqfyoA9SopaSgBCPfFeI+IU8TeCPF9xqcLzTW88hZX5ZHBP3SO2K9vqOWKOdGjlRXR+GVhnNAHAaH8YNGvYwupb7KbvkZQ/j1ref4heGkh8w6tARj7oyT+VUdV+Fvh3U3MgtntpD1MJ2j8ulZK/BTRlYFr27ZfTjn8aBlPxJ8YYTE9v4ehaWVht891OB9B3NN+GWg65JrEmu6pLPHDIpASUnMpPfHauy0TwHoOgOj2tmrzDkSSncw+ldKAPSgQCiiigAryjx3421nR/HMNjZXAjtk2ZTbkNu65r1evCPih/yUlf8Atj/MUAe6xtujVj1IBp1Nh/1Kf7op1AH/1fSfGdg+p+E9RtY/vPESB645rzD4P65Fpuq3Wl3TeW1zgpnj5hxj2r2lhkY4I6EV5L44+GF1JqD6n4eAZmbe8AOGDdcigD1sGivDIPG3jjQ4xaTW8shTgefAWP0yKl/4Wj4y/wCfBP8AwGagD2+krgfh74t17xFd3MesWPlRRqGWURlAD6c9a77tQAYooooAKKKDnHAzQAUV5P4p+IHirS/EFzaWenAQRthCYS24euayf+Fo+Mv+fGP/AMBmoA9qmmSCNpJWCooySTjArwLWLr/hMviYptMtG0yopH91T96p7vU/HPjX/Rfs9wIWPzJHGY0/Emu/+H3w+XwwDe3xR9QddvHIiHoKAO6Rdsar6ACloooA/9b2SjGaKKAE2A9hRtX0H5U6koAAgHQD1ooooAKKKKACiiigA2g9QKTaPQUtFAAFA6AUUUUAFFFFAH//1/ZKWkrzfxn4k8QW3jW30jRrmOITRrtDqMbjnuaAPSc0ledpZfEksu+9sCm4bsYzjPNd5JdxWlusl5NHEMcs7BRn8aALFFVLTVLLUAfsl3DP/wBc5AcVPLPHBGZJpFjQdWY4AoAkoqjaazp99KY7S9t5pB1SOQE/lVqSVIkZ5HCKOpY4xQBJRVK11ewvZDHbXlvLIOoSQHFXR0oAWjNcL8SvEeo+Hxpn9mziLz5SrkruyOKT4i+JNS0HRdOuNPmCSzPiQlc5G0GgDu80leaj/hZKWyXST2U6FQ+wKuSMZ6Vq+DPHcuuXkul6rbi11OEElegfBwR7GgDtaKB05OaKAP/Q9kryLx1c3Nn8VLC4src3NzFGhjiU8ueeK9drzjxBpd9P8W9LvIrSd7aIIGlVcqOCetAFyy8XeKri/giufCkkMMkirI+4/ICeTTPGumaBPrMV34l1lo4EX5LLOA3qcDnNd91HNeV6/puo6L8QZtbl0h9Xsph8oXny+MY57jFAGDqF1oen+KtLuPCMksWZVWZcMFOWGOvbFdD4187xL8QrHw3JK8dkFDyopxu43H9OKpeIbfXNf1HR7waC9pbJKAsSJll5HzPjoK2/Gmgapa+JrTxPokP2mSFQksA6kUASap8LLRI4JvDsrafeRMDvZmIbnvWL8R9Ukk1nS9F1K5eKzEayXjQg4cnrj16cVpy+K/FevPDaaRok+myFx5txOAQo70/xn4a1RdQ03XtMRb28slVZoyoHm45z/OgDj/Ecnha0tobrwrLcwajA4xhXG9e/NexaDfvqehWV5JnfNCrMMY5I5rix4o13VWittL8KG3kZgJZbpBsRfw616BapJHbRLNsMgUbjGMLnvgemaAPN/jL93Rf+uzf0pfi8B/wjekf9df8A2WrHxX0y91JdJ+w2k1xslbf5aZ2g45p3xR0y91DQdLjs7Oa4dJQXRFyVG0UAdzpoH9mWntCn/oIrzXWUS3+Nunm2wGk2eaF91IP6Vbg8aeKUtYreDwnP5ioEVmJA4GM4xxU/hHwjqT+IZfEniNlF7Jny4B/Bn19PagD0Ec9aWkHSloA//9H2SjFFFABRiiigAxRgDpRRQAYoxRRQAUUUUAFGKKKADFFFFABRRRQB/9k=;" vertex="1" parent="1">
          <mxGeometry x="301" y="1006.25" width="28.96" height="39.5" as="geometry" />
        </mxCell>
        <mxCell id="0BSZRiFdR5pFS_ZLe5Vd-2" value="" style="shape=image;verticalLabelPosition=bottom;labelBackgroundColor=#ffffff;verticalAlign=top;aspect=fixed;imageAspect=0;image=data:image/jpeg,/9j/4AAQSkZJRgABAQAASABIAAD/4QCMRXhpZgAATU0AKgAAAAgABQESAAMAAAABAAEAAAEaAAUAAAABAAAASgEbAAUAAAABAAAAUgEoAAMAAAABAAIAAIdpAAQAAAABAAAAWgAAAAAAAABIAAAAAQAAAEgAAAABAAOgAQADAAAAAQABAACgAgAEAAAAAQAAAOmgAwAEAAAAAQAAAOgAAAAA/+0AOFBob3Rvc2hvcCAzLjAAOEJJTQQEAAAAAAAAOEJJTQQlAAAAAAAQ1B2M2Y8AsgTpgAmY7PhCfv/AABEIAOgA6QMBIgACEQEDEQH/xAAfAAABBQEBAQEBAQAAAAAAAAAAAQIDBAUGBwgJCgv/xAC1EAACAQMDAgQDBQUEBAAAAX0BAgMABBEFEiExQQYTUWEHInEUMoGRoQgjQrHBFVLR8CQzYnKCCQoWFxgZGiUmJygpKjQ1Njc4OTpDREVGR0hJSlNUVVZXWFlaY2RlZmdoaWpzdHV2d3h5eoOEhYaHiImKkpOUlZaXmJmaoqOkpaanqKmqsrO0tba3uLm6wsPExcbHyMnK0tPU1dbX2Nna4eLj5OXm5+jp6vHy8/T19vf4+fr/xAAfAQADAQEBAQEBAQEBAAAAAAAAAQIDBAUGBwgJCgv/xAC1EQACAQIEBAMEBwUEBAABAncAAQIDEQQFITEGEkFRB2FxEyIygQgUQpGhscEJIzNS8BVictEKFiQ04SXxFxgZGiYnKCkqNTY3ODk6Q0RFRkdISUpTVFVWV1hZWmNkZWZnaGlqc3R1dnd4eXqCg4SFhoeIiYqSk5SVlpeYmZqio6Slpqeoqaqys7S1tre4ubrCw8TFxsfIycrS09TV1tfY2dri4+Tl5ufo6ery8/T19vf4+fr/2wBDAAgFBgcGBQgHBgcJCAgJDBMMDAsLDBgREg4THBgdHRsYGxofIywlHyEqIRobJjQnKi4vMTIxHiU2OjYwOiwwMTD/2wBDAQgJCQwKDBcMDBcwIBsgMDAwMDAwMDAwMDAwMDAwMDAwMDAwMDAwMDAwMDAwMDAwMDAwMDAwMDAwMDAwMDAwMDD/3QAEAA//2gAMAwEAAhEDEQA/APn+iiigAooooAKKKKACiiigAooooAKKKKACiiigAooooAKKKKACiiigAooooAKKKKACiiigAooooAKKKKAP/9D5/ooooAKKKKACiiigAooooAKKKKACiiloASlFGM9BT1idvuqT+FAXS3GUYqyljcuPlhc/8BpzafdL1gcf8BouR7SHcqUlTPBKn3kYfUVGQR1FBSaezG0UUUDCiiigAooooAKKKKACiiigAooooA//0fn+iiigAooooAKKKKACnDtTaUUALR2q5pmnXOpXAgtI2dz6Cuzk8EWOmaPLNq94I7kpmNR60HLWxdKi1GT1Zx+kaReavL5dnC0hHXA6V2Gn/DopGJdWvYoFHVc81zOgeIr3QHnFiygSjacjNV9Q1y/v3LXFzIwPbdU2Ma8MVVnanJRj36neCz8F6R/rZftLjsOajfxl4dtOLPTFf0JUCvNixLZJP4mgnmixksrjL+LNy+Z6I3xHt14i0yIAdOBSD4koeH02Ij6CvPKM07D/ALJwv8v4s9ITx3o1wcXmlptPoAalA8Gaz/06yHocYrzIDNLkgcEilYTyqEdaUnF+p3+ofDrzYzNo95HcL2XPNcfqejX+mOUurd0x3xxRput6hp0ga1uHX2zXaaV48t72P7L4gtUkQ8b9uaCG8bhtXapH8Tzv8KQ9a9D1rwTa6hCb7w7MsikZMYOa4K7tZbWZop42R1OCCKZ3YfF08Qvd37dUQUUppKZ1BRRRQAUUUUAFFFFAH//S+f6KKKACiiigApaSlFAAK2vDXh661y6WOBSIwfnc9AKh8O6RNrOox20K8E/M3oPWu38RaxbeF9M/snSMeeV/eOOooPPxeKlGSo0Veb/DzJtQ1bS/B1n9l0pElvCPmf3rz3VNVu9UuGlupGdj2zxVWaV5naSVizMckmi3gkuJVihQs54AFIrDYOGHXPJ3l1bGZ/Kp7WxurxwtvC0hPoK7XRPBENtAL3X5khjAzsJwasXfjTTdJQwaHZpxxvKiqtYxnj3OThho8z79DG0/wDqtyA8wWBe5Y1rx+ALGAA3upxqfaub1Hxhq98x3XTop7LxWRLd3EpJkmc596TsL2GNqazmo+h3/APwi/haH/Waln8aX/hHPCcgwuoYPrmvOS7HqxpNzf3jQL+z62/tmehyeBNKuB/oOqJu9DWRqXgDVLVS8GLhBz8lcvHcTRn93Kyn2atvSvF+raeRtuHdR/CxyKA9hjKXwVObyaMa6tLi1cpPE8ZHXIqD+dek2nijRvEMYttatUikPG8DFZPiPwS9rGbvS3Fzbdfl5wKLGlPH2l7PER5ZfgYOha9e6NcLJaysFzkrng13udK8c6fgBbfUFH5//AFq8uIKsVYYI7VPY3k9jcLPbSFHTkYNBWJwSqv2lPSa2ZPrOk3Ok3bQXSkEdD2NZ5r1C2uLLxzo5guAI9QjX5T6mvOtTsJtOvJLadSroaB4TFurenVVprf8AzKlJSnk0lB3hRRRQAUUUUAf/0/n+iiigAooooAKkiRpCEQZYnAHqajrqvh7pIv8AVhPMP3Nv87Gmlcxr1VRpuo+h0losPg7wuZ3C/brheM9hXnN3cSXU7zTMWdySSfWt3x3q7aprDqrfuYflQCudPYd6cjkwFFwi61T4pa/8AltLeS7nSGFSzuQABXo1lZ6f4M00XV8BLeuMqvcVU8G6bBo2lya3qAGcfuwe3vXIa/rE+sXz3EzHaT8q+g9KeyuYVHLG1XSi/cjv5kuv+IbzWbgtPIRHn5VB4ArINB4FWrCxn1CZYbaMu7VB6kYU6MLLRIqAZ6VZtrG4uSBDC8hPTArubDwppukQLca7cKX6+WKS58b2NgDFpNkgA43EVfL3OB46VR8uHjzefQ5qLwlrEwBWzk/Gnv4O1pOWtG/Crk/j7VpCdjrGPYUyPx3rKnJmz7Yo90nmx+6UTEu9MvLM4ngdMe1VDnJ/rXeWfj2K5Aj1W0SRD1OKnu/DmkeIIDPosyxzdSh4o5b/AAsax06TtiYW8+h54MgAiuk8NeLLnRpFSQma3J+dCeg9qx9T0y50ycw3UZQjp71SOSamzTO2dOliadpapnoXiTw9aa3Y/wBraEF3Y3SRr/hXn7oUcqwwQcEVu+EPEM2jXqgktbucOp6fWtjx1oUJjTV9OAaGblwOx9aq11c4KM54Sp9Xqu8X8L/Q5TSb+bTbyO4gYqUOeO9d74itIPFPh9dUsgPtMa/Oo68V5vxzXU/D7Whp+o/Zpzm3uCFYVK7GmOov/eKa96P4o5ZgVYhuD3pp610vjrSP7M1Z2iH7mb5lrmm60NWO2jVVamqkeolFFFI1CiiigD//1Pn+iiigApRSUo6UDQ4e1eh6T/xIfBEtyRia5GF+lcDZRGa7jjAzuYCu2+IkwttNsNPj4AQEitYrS55WO/eTp0O7u/kcK7F2LN1PNaHh3T21LV4LcA4Zvm+lZp613Hw2t1jF3fyf8skIH86iCuzqxdX2NFyXyE+I2pKph0q2IEcABYD1riOauavdNealPO38TE1Tx6USeoYOiqNFQ/q5b02xn1G8S2t13O5x9K7+aaw8F6aI4lWS/cZJ7g/4VW8L28Xh7QZNWulUzOPkB7elcTqd9LqF2887Es571bXIvNnFJSx1Vx+xHfzY/VNUutSnMtzKzEnIGeBVE9afFG8sipGCzMcAV2mk+DYYLdbvW5xCnXZ3qIxbO6pWo4WKT07I4nFIa9CN54StMoIjNjvikS68JX7eW0XknoDiq9n5nL/aD39nKx59Vqwv7iwnWW2kZGB7V0+t+DQsButJkE8Q5IHUCuQkRkcqwII6iplFxZ10qtLEx0+49HsL+y8ZaebO9VY71R8j9z9K4XV9Mm0q9e3nUgg8H1FV7K6ls7mOeFirIciu91iKLxR4aTUIlxdQD5vpVfGtdzgUXgaqS/hy/BnnmCM+1d74C1JL+ym0a8IIdSY93rXBMCCQe1XdEvHsNTguEOCjCpg7M7MZRVak113QmtWL6dqU1s4wUbiqkT+W6uDyDmu0+JFqshttRjH+uQbvrXEdaJKzHhavtqKb+Z6Lqqr4g8FRXS4ae3+968V503Wu7+HFz59re6dIciRMqK43U7c219NERjY5FXPVJnNgv3VSpQ6J3XzKtFFFZHphRRRQB//V+f6KKKAClFJSigaNfwpEZvEFooH8YNafxGnEutsoP+rULioPACb9fiP90E1W8ZSeZ4hu/wDerZL92eW/exvpExvWux0PV7Ky8IXUHm4uZTgLj3rjj1q4+m3SWC3rQn7Ox2hveog2tjrr04VUozdtSox+Y1c0a1N5qUFuBwzjNUiOTXR+AYg/iCMn+FSaIK8kPETdOjKS7Gn8Rr0R/ZtOhPyRICR74riTxxW34ynM2v3JPTOKxerfjTqO8jLBU/Z0IpdUdn4B06FEm1a7GY4B8mfWsXxJrs+rXjkuRCDhVB4Aro9Sf+y/AkEScPNjn61wR681dT3EonPhYKtVlXl6L5C5pKls4GubiOFDgucZq/r+jTaLcrDMwYsoYEVlZ2uei5xUuW+pc8L+Ip9KuUR3L27H5lPT61peOtIiKR6rYgeTL94Dsa449eOK7zw5J/anhK6tJvmaEErWkHzLlZ52Kj9XqRxENNbM4IntXY/Dm/C3sljKfkuFwB71x8ilXZT2NTWV1LY3UdxbttkQ5BqIvlZ2Yikq9JwZc8SWf2HWLiHGAGJH061mgkMM1c1W/uNTujcXJzIR1xiqRGKTtd2NKUZKmlPc7/Uv9P8AAUUh5aLH88VwHQmu80s+Z8P7gf3cn9RXBnqa1qrY4cBp7SHZs6PwDc+Rr8WDjflah8cW/keILgDuc1U8MuY9ctSP74rY+IyY1gP/AHkBpJfu/mEvdxqfdHKGkpxpprE9NhRRRQI//9b5/ooooAKUUlKKAOn+HfGt/wDADWZ4pJ/t26J/vmr/AIAbbrie6mqXitduvXQ/2q6H/CXqedD/AH2XoZa8mu48Qfu/A9mnTODiuKtkMk6IOSzCuz8dMINIsbTGCFBP5UUl7smPFe9WpRXc4g9a6X4eHGuj/cNc1XU/DuPdqzP/AHEJqKKvJGuN/wB3n6GV4p/5D11/vms2IZdR6mrviF/N1m6Yd3NVLRd1xGPVh/OlJe+zSlpRj6fodp44bboWnJ/sj+VcNXbfEI7bWwj9E/pXE1dfSbRzZb/AXzL+hDOrWw/2x/Oug+JLZ1OEekYrD8Mp5muWqj+/Wp8Qn3a1t/uqB+lVFfuWxTV8ZD0ZzJrtvhzzBqCnoYz/ACriTXbfD4FNP1CXsEIqcP8AGh5j/u7+X5nHXn/H1J/vGn6aqvewqwBBYZBHvUd0c3Eh/wBo1Po651K3Hq4rNfEdbdqb9P0Oi+INpb209sbaJY90YzjvXJHrXXfEhv8ATrdP7sYrke9XXVps58C28PFyO60XjwHd/jXCt1P1rudOBT4fzN2JP8xXDHrV1uhlgl79V/3jR8OjdrNt/vitr4jMDqqL3CCs7wbEZddtx1w2an8dSiXX5cHhQB+lKKtSv5lS97Gx9DnvWmmnGmmuc9EKKKKBH//X+f6KKKAClFJSigDS8P6iNM1KK5ZdyqeR7Umu3y6jqctzGhVXPAP0rP710mg+GHu4lurtxFAeRk9a1gpT9xHPVdOk/bT3DwbpL3V+txKuIIvmJqDxlqQ1DVn8s5jj+Va1tb122sLI6fpOBkYZxXGsdzEnvzWtVxhH2cde5z0Izq1HXnp2Qhrt/BsQsdFvNQk4LKQtcnpVk9/eRwRjJY11Xi27TTtMh0q2IyAC2PWnRVouo+gsY/aONCO7/I4+eQyzvIerMTVvw/bm41e3QDOWrPPWt7wVNa2+q+bdyeWEUkH3rGnrNNnVXvGlLl7Fv4hXG/UkhU5EaAGuWFaGv3n27Vp5xyrMcGqB7iirK82xYWn7OlGD7HQ+BITLrSvj5Y1LGqfiyfz9buGByAdv5Vu+CIhbafeXzfwrgVyN3IZrmSRv4mJrWa5aMfM5qXv4qc+ysRZwCK1bCXUrHT5Z7ZXW2lGx2xxWZGu5gPU12uqkaf4Lgt+My4JHrUUqfNeV7WN8RVUHGFr3ZxDHLEnvWp4WhM2uWygZw2ayyOa6XwDBv1RpSOI1JpUVeaKxUuWjJ+Q3x7MJdbZQc7FC1ztaHiKY3Gs3Lk5y5qjEu51X1OKKutRoMNHkoxXkXDfXken/AGXe4t3OdvY1QzXZeLkit9AsYRGocgHOOelccBnpSqxcHZiw9SNSHPFHV/D63H2ue8f7sUZrn9buPtWq3Ev95zXWaeBpHg6aVuJJ+BXDucuSe5zWtVckIxOfDXqVp1OmyG0UUVynohRRRQB//9D5/ooooAKKKKAHVd/tS8NoLbzm8pe2aoUo6VSbWwnFS3QrHJ5/WprW3luZVigQu56CrOj6VPqc2yFTgdW9K6rfp/he1PlkTXZ7+ldFKjze9J2ictfE+zfJBXl2HWkNv4W00zzENeOOB6Vxl7dyXtw00zZZuak1PUJtQuGmnYknoPSqnXFKtVU/dj8KDDYdwvOesn+A5EZ3CqMluBW3qegjTdKjuZp8Tv0j9qt+E9IXd/aF9hIYuQD3rN8Sas2p35IP7pPlUe1UqahT5p7vYl1pVKyhTfurcyDnFKil3Cgck4FIe9bfhDT/ALbqSu4/dxncTWFODqSUTprVFTg5vobmpsuj+FYrYfLJPyfpXEVu+MNR+2akUQ/u4vlFYXpW2IknLlWyOfB03CnzS3lqXdFtWvNRhiAyCwzW949uQZ4bRTxCgBpfBFqsQmv5fuxg7T71z+rXRvb+Wcn7zHH0q/go+cjP+LifKP5lPFdp4SQWeh3l63BK4FcbGpd1UdScV2OuuNN8M29ovDyAbhSwy0c30DG3mo0u7OQmbfMzH+Ik1Y0eE3GowxgdWFUzXReB7bzNU81hlIhuNZUo+0qJdzpry9nSk/Is+P5gbqG3ByIlwawtEs2vtQihAyCcn6VN4muTd6xcPnI3HFbfhOOHT9Ln1OUgOPlSt+VVa13scqboYZJbv9SPxzeKphsIT8kK5I965I9atX9y95dSTyHliTVY9a568+ebktjqw9L2VNRe4lFFFYm4UUUUAf/R+f6KKKACiiigApw4ANNpRQBo6dq91p8MkduwUSDBqnNLJM+6RyxPPNR0fSr55PR7EqEU3JLVi9f/AK1dD4e0Broi5vD5cC8896saNoUFtAt7qbhUxuVfaquveIHuh9ntMxW44wvcV2QpRpLnq/JHFUrTrS9nR+bJvEuuLIn2Gx+SFOCR3rmiPekyT15pQCf/AK1ctSo6krs6qVGNGPLEdDG0rqiDLNwBXZzFfD2gCMH/AEmYc1V8NabFZwnUr/gKMqDWLrepPqN4zsTtHCj0rsjH6vT5p7v8jkm/rNTkj8K3M+Ri7ljyTyafbRPcTJEgyznAqI8nmuo8I6ese/ULkAJEMqT3rloU/az12OqvVVGDl9xa12ZNI0OKwiOJJBlq441e1u+fUL55T93OFFUavEVOaemy2IwtJ04e98T3NbwvYm91aIEfKh3GrHjK9+06k0aNlIhgVpaDGuk6HNfSDDuPlrkriVppnkbqxya1qL2VFQ6vUxpr22IdTotEM9a7HQ0GmeHZ7xhhpOBXLadbNd3kUKjO44rovGF0tvbQabCeFXLUYZKEJVZdAxT9pKNFdd/Q5aRy7s3qc04TyiLyg7bM5254qP1pG4NcV3c7rKwHrSGlpKkYUUUUAFFFFAH/0vn+iiigAooooAKKKKACnDtTaO1NaAWp764miWKSVmRBgLngVXGabThTcm9WCVthRnHHeuh8O6J5h+2XvyQpzg96j8NabBcbrq7YCKLqPWl1/XDcj7NajZAvYd676NOFOPtqr9EcVac6kvZUl6sb4k1k3j/Z7f5bdOAB3rEx70096kgieeVY4xlmOAK5alSVaV2dMIRowsizpFhJqF4kSDK5+Y+lb3ie/jtrVNNtDgKPnI7+1TfufDulHobqQflXITyNNK0jnJY5Ndk/9mp8i+J7nHBfWKnO/hWw01d0axe/vo4VGRnn6VSAz0rr9KjTRNHe7l/10o+X2rnw1JVJ3lsjoxFRwhpuyv4vvFVYtPhb5Ixz9a5eprmZ7iZpHPLHNQ9ajEVfazcuhVCl7KCj1Og8LXVpY+dcXDYlVfkHrWRqN213dvM3VjxVfJ6UhqZVW4KHQapJTc+oneiiisTUKKKKACiiigAooooA/9P5/ooooAKKKKACiiigAooooAKKKKAJFldUKqxCnqM0w0UhpttoLCiug8NT2dnFLdXDAzJ91a56nAnFa0avspc1iKkPaR5WXNUvpL+5aWT8B6VSNLk0hqZzc5OUioxUUoxAVYmu5pYljkkZlXoD2quKKlSa0QWT3ENFLSGpGFFFFABRRRQAUUUUAFFFFABRRRQB/9T5/ooooAKKKKACiiigAooooAKKKKACiiigAooooAKKKKACiiigAooooAKKKKACiiigAooooAKKKKACiiigD//V+f6KKKACiiigAooooAKKKKACiiigAooooAKKKKACiiigAooooAKKKKACiiigAooooAKKKKACiiigAooooA//2Q==;" vertex="1" parent="1">
          <mxGeometry x="341" y="1006.25" width="30.12" height="30" as="geometry" />
        </mxCell>
        <mxCell id="0BSZRiFdR5pFS_ZLe5Vd-5" style="edgeStyle=orthogonalEdgeStyle;rounded=0;orthogonalLoop=1;jettySize=auto;html=1;" edge="1" parent="1" source="0BSZRiFdR5pFS_ZLe5Vd-4" target="6a7d8f32e03d9370-6">
          <mxGeometry relative="1" as="geometry" />
        </mxCell>
        <mxCell id="0BSZRiFdR5pFS_ZLe5Vd-4" value="Actor" style="shape=umlActor;verticalLabelPosition=bottom;verticalAlign=top;html=1;outlineConnect=0;" vertex="1" parent="1">
          <mxGeometry x="286" y="886" width="30" height="60" as="geometry" />
        </mxCell>
        <mxCell id="0BSZRiFdR5pFS_ZLe5Vd-6" value="" style="image;html=1;image=img/lib/clip_art/computers/USB_Hub_128x128.png" vertex="1" parent="1">
          <mxGeometry x="381" y="1006.25" width="30" height="30" as="geometry" />
        </mxCell>
        <mxCell id="0BSZRiFdR5pFS_ZLe5Vd-10" value="FIDO服务" style="text;html=1;strokeColor=none;fillColor=none;align=center;verticalAlign=middle;whiteSpace=wrap;rounded=0;" vertex="1" parent="1">
          <mxGeometry x="556" y="890" width="80" height="20" as="geometry" />
        </mxCell>
        <mxCell id="0BSZRiFdR5pFS_ZLe5Vd-13" style="edgeStyle=orthogonalEdgeStyle;rounded=0;orthogonalLoop=1;jettySize=auto;html=1;" edge="1" parent="1" source="0BSZRiFdR5pFS_ZLe5Vd-12">
          <mxGeometry relative="1" as="geometry">
            <mxPoint x="496" y="916" as="targetPoint" />
          </mxGeometry>
        </mxCell>
        <mxCell id="0BSZRiFdR5pFS_ZLe5Vd-17" value="通过公钥和断言&lt;br&gt;响应FIDO服务注册请求" style="edgeLabel;html=1;align=center;verticalAlign=middle;resizable=0;points=[];" vertex="1" connectable="0" parent="0BSZRiFdR5pFS_ZLe5Vd-13">
          <mxGeometry x="-0.2" y="-1" relative="1" as="geometry">
            <mxPoint x="-8" y="-68" as="offset" />
          </mxGeometry>
        </mxCell>
        <mxCell id="0BSZRiFdR5pFS_ZLe5Vd-12" value="创建密钥对" style="rounded=0;whiteSpace=wrap;html=1;labelPosition=center;verticalLabelPosition=bottom;align=center;verticalAlign=top;" vertex="1" parent="1">
          <mxGeometry x="436" y="996" width="120" height="60" as="geometry" />
        </mxCell>
        <mxCell id="0BSZRiFdR5pFS_ZLe5Vd-15" value="" style="shape=image;verticalLabelPosition=bottom;labelBackgroundColor=#ffffff;verticalAlign=top;aspect=fixed;imageAspect=0;image=data:image/png,iVBORw0KGgoAAAANSUhEUgAAALQAAADjCAYAAAFbQQ7rAAAABGdBTUEAAK/INwWK6QAAAYZpQ0NQSUNDIFByb2ZpbGUAACiRlZHPSwJBFMe/bogX+3GQCE8LhScLMwiFCHQPEXgw8VDRZV3XH2DrsrtZUceCjkInO4VeOnSuq39A0aEoiOhU0F3qUrK92bE0oqIvDO8zb968mfkOIBzJul4ShoBVzTJSc3FxcWlZ9DzCDT8cyYqpx5LJBOOP+FUv13CxeDnOen1f/1XerGoqgMtHbCm6YRHvEY+uWzrjY2KfQZcibjLOc75inOH85NSkUxLxG/FARcnTXsFLHNKyRY14hnhWKchZ4m3iYKanPt/D/D6O/JJcKmYM2VKzIrNGKpfKhqnLivrPR/4lS92wWJTK+qZRzBcsMUZOquK8pkwExXAoPAmwf+HVrQXHb9fwWTdXrgORZ6Cv2s1lasDpLjBy282NHQKDO8DJhbJmVDrHu4QowD3jc/6fDuEn5r46mgYaN0B6C0icA7UDIJCjc1aAZD/loxAiD5+jIzM3Fea9vHHAfW/brQDg2QfaVdt+rdt2u0HvuQOa2jtRinBWf3We3gAAAGJlWElmTU0AKgAAAAgAAwESAAMAAAABAAEAAAExAAIAAAARAAAAModpAAQAAAABAAAARAAAAABBZG9iZSBJbWFnZVJlYWR5AAAAAqACAAQAAAABAAAAtKADAAQAAAABAAAA4wAAAACO51JfAAABy2lUWHRYTUw6Y29tLmFkb2JlLnhtcAAAAAAAPHg6eG1wbWV0YSB4bWxuczp4PSJhZG9iZTpuczptZXRhLyIgeDp4bXB0az0iWE1QIENvcmUgNi4wLjAiPgogICA8cmRmOlJERiB4bWxuczpyZGY9Imh0dHA6Ly93d3cudzMub3JnLzE5OTkvMDIvMjItcmRmLXN5bnRheC1ucyMiPgogICAgICA8cmRmOkRlc2NyaXB0aW9uIHJkZjphYm91dD0iIgogICAgICAgICAgICB4bWxuczp0aWZmPSJodHRwOi8vbnMuYWRvYmUuY29tL3RpZmYvMS4wLyIKICAgICAgICAgICAgeG1sbnM6eG1wPSJodHRwOi8vbnMuYWRvYmUuY29tL3hhcC8xLjAvIj4KICAgICAgICAgPHRpZmY6T3JpZW50YXRpb24+MTwvdGlmZjpPcmllbnRhdGlvbj4KICAgICAgICAgPHhtcDpDcmVhdG9yVG9vbD5BZG9iZSBJbWFnZVJlYWR5PC94bXA6Q3JlYXRvclRvb2w+CiAgICAgIDwvcmRmOkRlc2NyaXB0aW9uPgogICA8L3JkZjpSREY+CjwveDp4bXBtZXRhPgpRV3oSAAAnAElEQVR4Ae1dC5AURZr+R1xjwFuEnZPHhR6Oiiy6oMLuiboqIBKg8tRFETRGbsBYw+PlbSyC7N0GoG7s3R4DBIYwJ5yCCLug4gNCOAddUTjFBwqIPEZD42RwR3QIh7lF6asvp/+crOqqmurqquzumsyJnszKd375Vdaf75KUpSgmdVpM8YpoT/eK/LSSlnRPpU55efO1b4kh7W3fgX1U8kwJpb5LyV/J9yW0eetm34jcHEucmCPHiNipSk4vkVZBS5KRc0SMiC69/FIZGQzOkqA0zp8KJcK4Yn6o9hB179ad2lt/2ShniULBwrAxVKJU7TKhzIDlSP0R18xOnz6dkDO4131TJ354xg/PrgoV6lR7P96bshBNUS8SOp7DqAxYXHMQ0jIDlpDxuAYzkRtYXBFwtTRsCQfLpLsnEX6hlFeDNHDgwNSpi/vYfsuXL/fy7mrv2XA9c24PkdnRHc+SmR5Ue5heO9FIXbt2paqlVdKeDePGjmOj0H0jH/PZp4RP1/cX/8QWyOuh3d4PRfvO7q6fOTgix86In234hm75/DMOa9NRGudnzjPy34weRd/bghP9tnNnOmWV5uhXR+nbhm+Fa/l55VT7SS1BdypPWNgjf9GduWJ3P73VyP0Ct+YWW+SxtSuuEY8ZPUYwBDjDHEZlQIHIWNDhCCHwZFuJthyDUs5IETnsQC/IgoGV2gBA6MEPSghA31GKgv42kBpVygaFyl03SPxy64TLBsVLW14SxUaRnZCk0sIkC5hIhM3OSEUGbPn3gIDhqauvE96hq2ZnHHi2A5P2UVVVJQRMCJmjR412C9eqnQ1jPwyzdbNhnG1gP/8mYomOgcJAIRGQBk8ZAz5YWLzq6quosrJSBgpi8GwrBnb4G6opP1/G4RSppIOHwTViNPLrzzlXBFGFxcFdyuiVo/X0x3kPukanCouuESO3szb+iYYNGUapS/q6RuJmWbJnt7R2jRg5vrZ9ByHKqtLn39V/SXV17qMHzq+46yvdmGqkaWVlNpEWMvMXR74gDMA0WrIzdESGH54zlN+ngL/akPyzVa5QZKQewiK2iEPkJXAQ1/oLHDpPHgNlGmIhGI4fBkPdhgvhFmZQNFS5WyPq3RV3p8gSKYOKnyyX7Xh7hxBd+bm1dLJxd5XjOAIkyBmGmX9s51oQq4DSnyVnszlb/cSJE5yNDN33RUSVQ2x2isNsH6pqAwZypqkG8/0KssfUhpTgMz9ThTS5Glj2d3UMYCla+8zx6ZaQGdg7LFCtrjTw6GLBP9T8+fMlNdBtcNIDwzugAN4ZdvOjhJotX06zRyQgMm/1VVwLkB4onzF9BgeJVffldEt9tJh27trZ8pA2XdH/igy7OC2yznScmQkad6CPS9DIdPkzmTZI+yBg6OEDTqROBulI4fSJzCDtA06kTqGQ5rkFjF5g1IJ/kLN1dLuykj2wYOaXl/7MNijkBSEPFs2cMZMWLlxIffv0pfd2v+flPSv7rDINZDHKgvk8TArceMONIjF1KEdNHXN/UBicYrPq7me+9+RfxeiNm59APRdnwOsGXicGtLBypVtZN6ezfFZH0lSz9OBh4FrycKasOL1i7wciHgzjgcdnXzPENralJoKEMfKGQTSgDB1jXzDz7/J2pxEmUOEXdv/4Dz+lL/+8tfUpsjBdDO4ebTjn720z5Ne1P1P0cMKMoWWTj6w4rSKZT3NRZjorTucTXTVtk2kVjTjNgZHG1/CyvpfJ0VP+ZGPd5OqnVseZx8y4gzQ1aMK8BmtKKpoHJrt17RYkqkj8tDrChNlvzIK7jiypQ2OWn0v7XBpJplqLxDfTh2sPB8swZ97KOA+NoQConQdnP9haHrJ295U9FlctzuSTj03JlSX07nvv0qJFi+j9374vfJ792dk+IUI6eRVz05ZNEmXmrRevbdRJD0aKMGm+82c/qM615ZU3T3og00gYo/5IDMO1ckoC9kyJOHSr4EjfSwVq8kaNGkVTp04ljI4+vf7pkHUaPBho5qcCZfrrb76WcRzYd0Ca4zCUVJbQSxNeEvK6Z/xeVaBymleXMyf9qKHyn/1no/vRgvPqyWl4wAdD8Dooby3+4yVCM6e+iM7ZMLVg7Aa7tevXcr58dd9My5cxYKaRMDJ9wvpjdN3mWwDGsRPHxI/9rVq9yjejqqNvppE4IkNm/Cgh3NKtDE/2QMdiNOhsVheocSbYDXpQ5ZtpRILIgIbgtVvmrcwy54GeDhWo59JETVR7oJYuuegSSvWyT/CV7C+hPR/voTJraKHLj7p4vvBROgTKNCfY1NRE7+9p/jyzXXl5ubbMcppZZZoD5VsP9HHJdyad6ZtMOxGJ69kgHReyzngN0k5E4no2SGeL7BdffJFtEOHffBFDwRYikOF0CNBCBTFIh4ItRCCDdAjQQgUxSIeCLUQgg3QI0EIF8Z0JaC1G3mXE/h5f8TgbY9WzzjTGPjpYW3ag1HUeWEWAaToosWhbmOL5l5WUh10YF5RfYMusM1vIPBaxxJnxrDKNic7/LQs28YPtXTU1NbGgH5ge1dXVzTu2rEwDTVZeK2Ze3faq2FmH/WpAft2GdRykVb1Hjx5iqsTLY2CkwVdwGKtgoJ5c/STdOeFOsYnOK+MoHNzUQnplRLVHIRH/hDsmqNbSHBhpGcIy2Pj669mqk83MhWHd5ujzsP4conf2fOTpI9THBS0IVPXyas+Ic3FYdOH5NG/BPM8oAiON4yiwcEpQJN3kYbfiaGXjppoK00i1C2IW6/esF9hPBeY0ImFe+0XIbmg9fj3n1/TIyFvFNkzMRd616x12pqr6erpmxgzx3O+JJ4T+zl13+SLMgbPKdJB2GhEDZazZw8wAn/PBZ3xwwmd2PFMOxiNeKLfzP9i/qmeVaQTEghS0GlDqFxHPTAnbiwqHqFXYiR0x62VNIPGUGnQ+WiFsnEHDZY101KCFiS9UkxcmoSjDFCXSUQKgK66iZIcucKJMxwAdJZo+cQWWlnzi8HTCFtFH5j3i6c4Ot4671VNwZj/FrkfaRkPomffbeeJkKnS1oMQyi4e9YSrZaK0KW9nsDtF3+PDhNGzEMFKPB/EOXUQuQeUTP3+QkWyLfrHQhn8Blz6xf16PhWWqQRaN+eWrkNxyZjQOxsCeIsnckRGx7BLrUDJrkRE6Xo/84RHbskI0SS9seEEmdPPYm30HG6THfBpyqXWxYA89ALflY0GZ7OcvvV4OBypAYWUu3hy5ZC29dJjdcylL3GFDfQzRScVHDlv1oFIjleVuGz1oE5LpeFPmPjiX3n7rbepsHYaJtt+qWEpVW+eNWItoaT8JNwzXxa1Gjh0pO+HZphWq6eDmAmeSoMBQotArhVEcljpgwACqPVxLuz9oPpoqp6bFqjzx0WyOvrliUXEO+7RzPNrK5mhxDvesubOyBzzMK5PRZKRfcazRxdpdVeF15/0XsTUxfs1PhG78oQ7zkY60wwIWY8OAqrB5YPa/eo8Bq34L2pxuErE/F01YtipUG+2WCJqG5557jgYNGkSP/FtLJ2Xr5q2ijXULUyx2aBb77upLj614LLR0E6qNhng1+qbRYq5ItL170pCh1h/IhA9bVbgtz3T1t0Ehu27qKj3xiYJIF+KfU4n8OC3Tz27+2asajv2hAwX17IvPhgaY4291F4Da3jrNGW11hO2huh2C99bJvRtpcZLbTLGZJYCYqfpHGA7HG1V4ewb8wS1MW+zEiJ9zBlpmOGpZOv2Bxei8Kidj3wqeOV3o/AFGhaj2TjP748JDx3YSHGim+o0SYE4rJ6A5EsnsAKxi1njqCsBiN1IWm3Q4P4WoRwI0F0y+2gCcfxXW5iO/JkUBlsOAYbrmmDjvceuRAq1mFq8kXnEGz0/Hpu6kAatiAXMoqUN+SY0hMAKRdlgCp9oGPRqgNVW6AdoArQkBTckYRhugNSGgKRnDaAO0JgQ0JWMYbYDWhICmZAyjDdCaENCUjGG0AVoTApqSMYw2QGtCQFMyhtEGaE0IaErGMNoArQkBTckYRhugNSGgKRntjMZqU7erD/gKBFWHv2wOztCEWahkYl/XgW0Yt91ym9gSgVMcWKnXcLOdquOgDxyCAPVa+ppoHNJerNviYgWat2AA4NaAVUF2MwN4nJoCNWf2HNuJE3PnzKUP9zSf2oKTl//wH39wiyKvdrE1HXjlsS0uCpCBEE6F4YMrXn/jdXGqxoIFC8QxIjjyY8OBQ2IhPG6mKEQV2Yp/tXBoZ7GIGwcU8Xk/zEbVH/ws/cEZwo9q72cG2IN2vuV57Rh2bSH9OBTyu2LVCtuex6DpxNJ0oKDMZPWVf/PtN+XKeW5WkFGukKCZzpc/Lsu8+fNozpw5WWUjnqp3yYIKMpyHDRmm5QYSl6yEsgLIUNj+1v+K/lnHEUvToeYCTce17evpyp9eKbYbs1vd0TqxBwbMz/ZULhSaJRKOL2790fffotIflNKY88pDJRUL0I2pRho+aDi1s9pLbkJE7r4/1ZJJnKIX8CS9lkDNJzdhC9q2zz4lSBsLHlogP5J8qhP8+zVH3ASo8cLMH1uY2c+h2kMU9IgqhPNSsTQdpVRq2wLHr51XJoLa43Q1qGP1x4SOY9tw8weurGSQsUkfFf38kOuFHeydPxz5hjPBcMwW/3DYnuqv/l/mCrcoQEZmY/kYChTS/9RzxfxYpoZxmgEwOi1RXhHrTCPu59iB5gJAyvh478d0/PhxucETwEOhvcVVt6rOwE6qnCT8OHfkCssi+qcNaCcm6Jr7qY4dOlJpaamfl6JyyxvQRYVSBJmN5WMYQb4SF4VhtKYqNYw2QGtCQFMyhtEGaE0IaErGMNoArQkBTcnEMnrHeZ85YybV1jYf0s52bvqap9ckqhfoVsZY5GieLMVhVkEUrgDAyVtLVyy1xv2S0+1Wyx4p0JgsPXTwEK1cubIljQrHSY8tLsJUMrblAKpEA+48wCPsc6jTZ3AyjccJNGHzUajhIjmBxgYyjvaxwHOevNXacT8chk+qwXE/SVI5A50Bst/5SUHcFIbj8KqkqJzbaKyPEwe9oi1OHwjraIazf8Thrum2G7POv3n4N9SptJOMB9+CpsbmG45KO5TS/fffX/hSSy6MWb58uTgvDgfy+TYNQZjs8MOHAaIpUQ+2cjsQS3XPpTxxhs2p6eBTdKMGWcaXPogbhwpCSZCtiuWKwMGAx04cixOjSOIODfTa9Wub2WwxLqsPn4O5ElQXe/4w4jsAsPmZw+AZQBeDCtUzxALGafdOa74w0GqbiU87Tx/9KxtTNrA7PwfVKyyPK63VQdOm05d1X7qGwqGwixYtcnWL0vKiiy8KteZO5iEMG7jJsLXNirTAzJO69aozC7PVuYmQceENSrNftYvbjDcnlzNLQ0kdWLWPVZup79Jn+ytSAmoQK4k6ndVJLKPlGk1tsPyGZLY41p4jsnSWbpz2ipdIjak3m49QzmU1aag2Wt65go4J2JX+aIFVcGMpAHKwyjRmYlHq6TLibQ6jIh2PBpOtj6S8aAAr7yEHJ0Klb0fqXJb9sfMof6RAL122VILM4AJsLOUqepVu9njdX7blCSV1ZJtI0ftPS1N4Yy+/7PJQxYkU6O2vbqfePXvbMrLvwD7CWuiiVekPPd7Kmt01oYuRG9Dp1wmXJeCGnymTp1D7Du3pwl4XygzZLl2QtiEMaVaFCJlzEIDcr3+/3OIJ8wVlOVrtEbrJuyxxQCoJLWn4yeeWlMNpxKWHlTKcuIZidPn55WLEDiNsLB9DtrUKS5A5MxRfH5Lh0LoF0oD8CqVeDYJnvsYDZij1io9mG/t/p392dYZjf0gXZY1EOZEP8oxxBxwXzyxSmR2auS5jHSyfQy7HwJFMz6VnGOSt4fCq7hYO7mAyjs/nAa0guPj5CSXeYQIVM9dxi23MrDM6nCHGo73SA/PYryf70m08/Kq/DP+WP2Yy1mdHNlnsVwutubm11VEympnHPU3oGHNge+h43vvx3gx71Q+bkV/EwT9cmOaMj/1EPfQaqo1mFqCXhNqvG1sn22p2y1m3buiEQvysuvyoC72x4w26asBVbCV0iJRu9qqnrl260svbXrZ1qBAfrmeCZMQKZYJ91CrUoBJngrdHDB04VHwc+cPI7qH19DWoAPmVP79C5T3Lba8wp8vxMzBOe3Znnf3xM+vOcF7+2H8ovbXmIYg7DzLhFc35w6gMUOHVTorKidFcs2AEsxp2UlwKKtalmwmE5Y+ac0sz3IpaRcWYw7WHW27iTHck3ESnjI+lwmD+aNW8XhNVtgomnkgYzUzDBexNJ5uXAQy+ZnDLfYfswUVnBr+05SXq0aOH8OEcL3EJVnxWcVV5UJELLM5liiiu/Ecdb6SMdtIMI3cNDQ1O64xn3EubdBUr0EkHL5vyheqCZ5OA8duMgAFaExMM0AZoTQhoSsYw2gCtCQFNyRhGG6A1IaApGcNoA7QmBDQlYxhtgNaEgKZkDKMN0JoQ0JSMYbQBWhMCmpIxjC52oK05N01FKI5kYmN0SUnLgSeFCMVXx76ipv9rnrHXkT8zZ6gDZSuN2BitKf9Fk4wBWlNVGaAN0JoQ0JSMYbQBWhMCmpIxjDZAa0JAUzKG0QZoTQhoSsYw2gCtCQFNyRhGG6A1IaApGcNoA7QmBDQlYxhtgNaEgKZkDKMN0JoQ0JSMYbQBWhMCmpIxjDZAa0JAUzI5HV4VNo/V1dX0xvY3fIMvfdS6NytB11WHOqg77FkWuICBj3Dj02a8dByThrOakqK0LAnDLfc33nCjjcG45X50x7NsdvwwqPYw4aZ7VrisbMXTK2yX3rBbseixA40bLm6/5XaBx7XtOwh9WlmZJ8gMHMBmBdCdp62zW7HosQKNaztwtQeUH4NbA4sZXsxgxwp0927dxQFWuYDMlcBg43zSNevXyAPBcWDWzOkz2RvNmjuLCvHooNikjkl3T4oMZKBYU34+CbA/2C3PaQLIOD6TjzuGv3vuuwdawalYOiw4cPCdXe+Iwnp98HJB4tNPPxXBLyi/gHo1HKfvL/6JaJpgiStVC1FFzmicDDb+lvHirFL++KHgzzZ8k1H+bCsBH9HXPm8UH9cjVUcy4oPFCxteoIP7D7q65Wo54Y4JoaOIvI3Gxb4LHlpAABmvOxS3r85cqn6cbl7PqLBbPv9MOnMcTnvpIUIDxMxnnn0mVIyRMxoXOUKBfVAqyMgo2tBZM2cJxkNsgztXiAjQyj+8BevPyfTkZZ/pM5xNVX29uJIK11dtqtlkO/03SIyRA+1MlDseAJnv/x7wPwNozPAx4r4tdneG83v2anK87P3iCuqGuEEK3BEWRsXyMXRmBCIZXjkeu8C1pjU1NbZDuJ1hkvYcO6OTABh/yM+/bRz169Ry9202ZdMCNG4WQi9x6tSpMm+4oFeVf6VDARrQPqOJ2zP7V7KjlG02YwcavUJICeiKP179uMyfuHnZeoJ7tgptpU51zYwZ9LuxN1P5ueHvZIkc6B/+8IcCA4AL6YClATwzuAwSOhrZKoC8v2NzGjreCNwzMLG8R87d+sjlaACHZuLhhx4WTUMYML3AB8jiFf54j3iFTys5TcrrTjnaL912ez/MSMI5HgM/GMTCRzsKFTmjkSm0xTWv1NiuQo0is9wz5DOpcSnlwoULRa8T7ShURUUFrVy50rUnquYBYc/scKawev7556nqoL03OWf2HPrxJT9Wg+RkjoXRyBHfS8s9t5xyaQVWGatetICP6twH58ro4Xai6QQN/vlgaec0PLn6SVK70xicwiCYKiOfSp1yBsvpOTagMbD0bcO3hIGfXMFWQV5YtZCmTJkiZXKUHkCxwtAs5HXVjt1YLz8v86PG+fXzw25h9NiA5sxc1vcyOcCErjZAy6YHp4K8bPkyqqys5KiLSo8daKDBzQgj0xrDVXA5jPN1Z/ti0bUA3URNtGzRMoEJZGmIeQDbS/H4x7z58wjiYs63zHslpNNe93S+28U4bksOVq1epTtrsaanhdFO4nzd9DX9tfGvTmvbcywXg9lS0PuQF6D1FrEwUtMyTFoYRc1vLgzQmvA3QGsC2rTRmoA2yehBwLQcenA2qWhCwBBaE9AmGT0IGELrwdmkogkBQ2hNQJtk9CBgCK0HZ5OKJgRiWdGhI+9NTU1U+1mt3MmSa5pdyrqQ27x4rvGa8HoRKBpCg8BfHPmCjtYfpY4dO9KGdRtoyeIlkS1F5W0I2GWE+MusrQpJm0fTS638pFaw49BM4KaTzXekbNm0RSz3da5EBWypXuEv1SnZX+KKPNbujZswjnr06CHcDcFdYSo4y4IjNNbYNHzVQE+vetqTwIwiiFxyZQmlqsMTmjZasT1A5EVsTgsEx0ay8vJy03IzKAWoFwyhmcgbN2ykJYuW2PYEuLXAORPZWRlpYjutnURnYve6pFdRnxriLGdSnvNOaIgWDY0NtGXzFqpeXm1bAS5ArrBEipFWCzwyT5C7tODYzDJ+/HiafO9ksWuIN03mKYcmWQWBvBMaZyw9tuSxzD0uFXkmsgKSMLZC7O7ndvdtsfnFdUbLzx07dLTtXGB7o2eJQKzrgH0iP5Gy/k6cSGHps+1UtoqSFG2gFH1XoD/krRel1GXcOC1u/vz5qbr6uowSo4ywf3D2gyn4c/uh/FVVVQKPjAiMRVYI5G3YbtvWbbaWWcjJD1tvY75Ei6ANAfKHn7VLKfWm1Sm1RkmwZ7f+L807GzkabpGXP7qc/rj2j7Y+AftR9ePHj6uPxhwSgbwRGttdaw/XymyLTp7V+BWLEnL9m965XbZsmX2UpsJ6AZTRmJJKa7hwZUt4sWm++bSeFktjyhoB7VPfkJnHjB5D0+6d1mqrlXVp8hgAe9CHDhxKODmYd+niXJKgCi00hisx2gNV7HrQckftT1uncOeunULE2LRpk212z1PUsDphJRutMWbrsx5ERT6MFyRRyw9aWhY9EAQjIKxsx4dU+LfQCNe1S1fCS1Ds+vDhw8Wk1LAhwxgKfXpWEncOnjdt2WTr/KFj5dr5szpdJegYOjpeaifMyyzCIGweOpTIs1e+hL0jX636p1biK3B3dH7vrrg7tePtHTmwJvug2s6ZB6FxbrysdEcFg9x+REZYnFMPgPZ+vFeMKgA0GZ9Swfkkdj5epoJJ02MESCex89YpFN8gjO0qoxrqp5u/UTgsasKECXT9kOttq+Huv/9+GjtuLD218imq/s9qmxgjZveu5BiMrg2B9AhQaqMlJqaXE0DswnHWx44d05KN/BLap4hM5Kuvu9r1oETMzvXu2Zvun3s/3VFxhyuxfaI3TnEiYBEb/R/a35xI5zJ956RrH+UIimOnszqRF5nVOHBGL4jdp38f0ZlS3Yy5MBA4Vq+ndUZpC7aFLoyqMLkIioAYV1c8L7x8IV004SJhgzXmWKWoQxUsoXfs2EH3TrmXxowZQ7dPvN1zySaGA9euWkuv/PcrYshLB2gmjUwE1P4PTroHmfMxbJdfQisdQtk5tDqKAKduf53o6OH81WeeeYYgguBNR+dC1dHhUBf9y3HtTMzjtUmPm8ebSOHGPu/OedSzd0862XSSyrqUUb9+/fKSWa2EVmUp8UZjUkJdGmoRXDxj9AO/lc2YqIcKN9tk/geRMbkiXgz1Rcn0Gq1NmsgoD3eCok2g8GNDi9x/Qv+8tMhOdLTNFGI6eP/B/bRu9TpyzhZSRZrITiKC1NkoZ/hswmbrVyEyhgmxJ3HQ4EEyloxj3yvSZUz7EKMAK6X3TEOF3X+mB28bnmF1bk7wCsGNgWhMXDw548OsJmYDr7r6KmpsbKRu53Sjn/X7GRXEJuPs52JyC4GllJhkmTF9hlhKyRMjnjOHeZj1CzJR4Zzpw/JRVeGZywY9Y1YUE0nKZJBqjgILZ/7U+J3mIOmp8WG5K+qwEJVWkQMvP3ZSo7MAOfjd996VEyJiLQbEjyJRvNqOW8GmxibCVQC8U3zIsCHiHHHI/0JkwkQDxmbTSogoaTNavAEDBhBGAoAJ/KcesEQoxT+HC6oLkY4yvxxq+E9qP6E1a9aI/ooQ8Xy+iNM7Tafzqs4Twcv+tkxuHlbjKwhzvt4y53Xrcroa06cF2irLfLlM8eKL47bAH1P1aK1tmxhcWmYs8Ifiaf3W/DtbWeczlgosX748hTPm/ZTb19IZF/KC+ioGpU2Gdr69uHx2+6vb6dPaT4XTh3s+JAzVHel0pHknt9pZdAbO1zNasPSULmcBHaIRI0bQ1YOupoE/H+i5jQrDizu376Qv677koFI/u+vZGTdCbNu+jbZv205o+bNViO+G4Te4zrB6xbVuwzr6YNcHrs49rMvAgkxyuQbWbJk3QjvLiXXSfNcs3GwdFZ2dPWfG8OxB5MHXD6ahNw0tiN69W7bbol3BEBotNg6TkTJnujZsxHbWUNREd5EhhRy7siVh7uHjEJp8TBy05MSY3BAoGEJz5jC89/zG5zOIze6s24ieK7EtIjuJy+mwbojMSBS2XnCEZrjQYuP8ukMHD7GV0EF4daLFRmybz2APTiLziANGYVQ1bMQwGjd2nGplzAWIQMES2gsrEB1roHEHrDrl7eU/qD0T+dZxt9quQA0a3vgrDASKjtAMGy9Kqq2tZauc9JtuvokmVk6kUuvPqOJFoGgJXbyQm5zHiUDBLvCPs9Am7uQiYAid3LptkyUzhG6T1Z7cQhtCJ7du22TJDKHbZLUnt9CG0Mmt2zZZMkPoNlntyS20IXRy67ZNlswQuk1We3ILbQid3LptkyUzhG6T1Z7cQhtCJ7du22TJDKHbZLUnt9CG0Mmt2zZZMkPoNlntyS20IXRy67ZNlswQuk1We3ILbQid3LptkyXTfrZdrihbx1HRqVOnqF27drlG1SbDnzx5UpyxDQxPP/10cdIT7quBOQnK7ClMQi2aMkgEjMghoTCGJCBgCJ2EWjRlkAgYQksojCEJCBhCJ6EWTRkkAobQEgpjSAIChtBJqEVTBomAIbSEwhiSgIAhdBJq0ZRBImAILaEwhiQgYAidhFo0ZZAIGEJLKIwhCQgYQiehFk0ZJAKG0BIKY0gCAobQSahFUwaJgCG0hMIYkoCAIXQSatGUQSJgCC2hMIYkIGAInYRaNGWQCBhCSyiMIQkIGEInoRZNGSQChtASCmNIAgKG0EmoRVMGiYAhtITCGJKAgCF0EmrRlEEikIzjcmRx/A1NTU3U0Njg76kV1zM6nEGdSju14ss45wuBRBP66FdHqba2VmB7cP9Bql5eTa9uezUnrPv26Uu/mvUrKutSRp07d6by8nLq8qMuOcVpAkeHQOKOAlu3YR0d+fyIQKjmlRp67rnnMtC6tn0HYTetrIyq6usz3L0sXjvRmOF03cDraMyYMcL+oosvooFDBlKp9WdUfhBIDKFXP7W61RYYRAaJR3c8KxTazzZ8I14AN2JzhCB45eRKmnDHBLYyukYEip7Q1dXVtGTREtr9wW4JW67ElRH5GEBufjHciA7R5L6p99HEyommxfbBMWqnoiX05q2badbMWdqJ7FcBbsTu2rUrzZs/j0aOHUkdO3QUx9e6xQF5/9uGb6VT08kmKv1Bs+jSvVt3z3AygDEIBIqO0NzRW7tqLa1Zs4bq6upIR4ucDV+Y2AjD4gla7MdWPEZX9L/CFtXOXTtp6+attGTxElEWm6P1gBdixaoVNGzIMKeTeXZBoOhGOeqtTtysf54lRyvWn3Ou/PS7lC8vVhBF8AOxX/u8uSPZuawzdSlrGQ3BF+blF1+2vZRLrbJAoaPKL0LXLl3zUoZiTbRoJlYwhrxo0SIaf8t4+mjfRxLvbEYpZCBNBjVvyPOkuycROq9fN31Nu3buooULF2Z8YfAioOOqKgwPGhUMgYIXOZqoiZYtWkYPP/Sw7ZPsJmbwp55bNz8IEL6m/Hw/L5G4ueUJYgREJVbOsiDMLZ9/xs5C7JAPRWIYMGAAzZo7iy7tf6nWTnHhixxNRMePH5cEcFY+6teNNFzvkF2h6o7WyTjwDNK32/th7PK3Kn7IFrvhOPVKj4UjL24K5ZTK8l8sihsTjP/jN2rUKLrnvnuoX79+WiagCp/QrdSkszVj7wBy/F3jadzYccIKLf2q6lW0evVqKX/DARUAOXf9ORSrLM7E5vz56dn49YsnX25qA8PEnjN7Ds1ZMCf21rroCa1WGj7l48ePp6E3Dc2YscPsXWVlJd068VZ6+aWXafPzm2nTpk22VluNy5jDI4AXUihrEpZb7NIOqIH4Z1CLplMYBF6MCIDMGOLyAg8Li9BqX3/D9UGiNH4iQqCpEd9IS36MWSWqhQZW9UfrCSMiuHvPS2Esu/4vwddweMVj7O0IqOIflgD869P/RRf3vpiwQrG5ffauE3tM4Z8SQWh0oPBpw/T3nRPupN/3+b2Ydr6w94XUdKJJrIo7duwYlbYvpd27druOmISHMHhIVHjSFYgMdflllxO+mLpXIhYFofG5YiVksnTjyp0n6GpHBMSeMnkKB/HU3UZMPD3n4KDmLYdoCj7owqqFVDN1al7zWRTj0LUHamnLpi30ePXjra7dyKYVlJ2XmKpAJTKGD39x2y/ovPLzRGp/WvcnubSVXyzOhjpTyHasO/2yfWu6X5zOsH5pqPFwmXr27imi6NOnD/Xu2dsZndbngm+hIXsBJPxun3g7bdu2jR5d/KgYeuPWWiWmataKpEtiauVj6nvsuLGywj/a85EkNAdV885T5uym6qo/1b41s1+cali/JbYoE6vy88ttZWL7fOoFT2gVHMhjPXr0UK2EGS1h2ErOiCwiC7cvRUNDy/YvjMlOmjyJFlctFus5mmcGW2YHORu8qOlE0wmq+n2VeAkwIRRGYVjzgdkP0JQpljhm9c/QWGDkATqm459Y9oToX3jlBWlCrNhmiRUcLkw+4gxT8CKHs/D7Duyjp1Y+RR/uaa7U2sO1Qgzhz2S+ia2KGZx3kHLEiBGCwOXnlbO11DHqsvjfF8sySQfLgC1ek++dLFt2LGpat3odoZObjRo0eBBNDSDfYoRo1apV9OILL2ZEjzUl4yaMK+iVf0VHaCfKWLA0fdp0aZ0vYrsRmbdnQVTS3duXgLQxQ9ETuvaTWnrrnbekXM31B2I7lZ9s6PTr9czEdbrzjBjsQeRf/tMvaeDAgYbITqBifi56QjM+kAF3vL6Dfrfgd7a1GuzOetgWnImsEpfjZJ0X4gz8ubVR1mdih/0bPXoEEkNoL2ggEy5blrn81Mt/EHvIxJMqJ4nOlSFuEMT0+Uk8oRlK7uy8sf0NtgqlX3X1VTRxorXx1bTAofCLO1CbIXTcQJr4CwOBRK22KwxITS7yiYAhdD7RN2lHjoAhdOSQmgjzicD/A/lMXTkyv/fmAAAAAElFTkSuQmCC;" vertex="1" parent="1">
          <mxGeometry x="476" y="1002.5" width="37.27" height="47" as="geometry" />
        </mxCell>
      </root>
    </mxGraphModel>
  </diagram>
</mxfile>
